<svg width="22" height="16" viewBox="0 0 22 16" fill="none" xmlns="http://www.w3.org/2000/svg">
<path d="M16.9473 1.49186C14.7039 1.49186 13.0108 2.97334 12.3335 5.30138C11.2753 3.65059 10.4288 1.78815 9.96317 0.179688H7.5928V6.40191C7.5928 7.62942 6.57693 8.64529 5.34941 8.64529C4.1219 8.64529 3.10603 7.62942 3.10603 6.40191V0.222015H0.820312V6.44424C0.820312 9.02625 2.89439 11.1003 5.43407 11.1003C7.97375 11.1003 10.0478 9.02625 10.0478 6.44424V5.38604C10.5134 6.31725 11.106 7.33313 11.7409 8.22201L10.2595 15.1215H12.6722L13.688 10.0844C14.6193 10.677 15.6775 11.0157 16.9473 11.0157C19.5293 11.0157 21.6457 8.89926 21.6457 6.19027C21.6457 3.60826 19.5293 1.49186 16.9473 1.49186ZM16.9473 8.64529C16.0161 8.64529 15.0425 8.22201 14.2806 7.58709L14.5346 6.65588V6.61355C14.7039 5.59768 15.2542 3.90455 16.9896 3.90455C18.3018 3.90455 19.36 4.96276 19.36 6.27492C19.3177 7.58709 18.1748 8.64529 16.9473 8.64529Z" fill="#1A1A1A"/>
</svg>
