<svg width="22" height="16" viewBox="0 0 22 16" fill="none" xmlns="http://www.w3.org/2000/svg">
<path d="M16.9473 1.4921C14.7039 1.4921 13.0108 2.97358 12.3335 5.30162C11.2753 3.65083 10.4288 1.7884 9.96317 0.179932H7.5928V6.40215C7.5928 7.62967 6.57693 8.64554 5.34941 8.64554C4.1219 8.64554 3.10603 7.62967 3.10603 6.40215V0.222259H0.820312V6.44448C0.820312 9.02649 2.89439 11.1006 5.43407 11.1006C7.97375 11.1006 10.0478 9.02649 10.0478 6.44448V5.38628C10.5134 6.3175 11.106 7.33337 11.7409 8.22226L10.2595 15.1217H12.6722L13.688 10.0847C14.6193 10.6773 15.6775 11.0159 16.9473 11.0159C19.5293 11.0159 21.6457 8.89951 21.6457 6.19051C21.6457 3.6085 19.5293 1.4921 16.9473 1.4921ZM16.9473 8.64554C16.0161 8.64554 15.0425 8.22226 14.2806 7.58734L14.5346 6.65612V6.61379C14.7039 5.59792 15.2542 3.9048 16.9896 3.9048C18.3018 3.9048 19.36 4.963 19.36 6.27517C19.3177 7.58734 18.1748 8.64554 16.9473 8.64554Z" fill="#C4C4C4"/>
</svg>
